<?xml version="1.0" encoding="utf-8"?>
<!-- Generator: Adobe Illustrator 24.2.1, SVG Export Plug-In . SVG Version: 6.00 Build 0)  -->
<svg version="1.1" id="Ebene_1" xmlns="http://www.w3.org/2000/svg" xmlns:xlink="http://www.w3.org/1999/xlink" x="0px" y="0px"
	 viewBox="0 0 156 189" style="enable-background:new 0 0 156 189;" xml:space="preserve">
<style type="text/css">
	.st0{clip-path:url(#SVGID_2_);}
	.st1{fill:#37556E;}
	.st2{fill:#FAC300;}
</style>
<g>
	<defs>
		<rect id="SVGID_1_" x="2" y="7" width="81.4" height="127"/>
	</defs>
	<clipPath id="SVGID_2_">
		<use xlink:href="#SVGID_1_"  style="overflow:visible;"/>
	</clipPath>
	<g class="st0">
		<path class="st1" d="M45.7,7C64,7,78.9,21.8,78.9,40.1c0,12.3-5.7,22.9-14.9,28.7c-0.2,0.1-0.3,0.3-0.3,0.5s0.1,0.4,0.3,0.5
			c11.9,4.6,19.4,16.8,19.4,31c0,18.3-14.8,33.1-33.1,33.1H6.6c-2.5,0-4.6-2.1-4.6-4.6V11.6C2,9.1,4.1,7,6.6,7H45.7z"/>
		<path class="st2" d="M29.7,111.6c-0.6,0-1.1-0.5-1.1-1.1V83.9c0-0.6,0.5-1.1,1.1-1.1h1.7c0.6,0,1.1,0.5,1.1,1.1v11.8h10.4V83.9
			c0-0.6,0.5-1.1,1.1-1.1h1.7c0.6,0,1.1,0.5,1.1,1.1v26.6c0,0.6-0.5,1.1-1.1,1.1H44c-0.6,0-1.1-0.5-1.1-1.1V99H32.5v11.4
			c0,0.6-0.5,1.1-1.1,1.1L29.7,111.6L29.7,111.6z"/>
		<path class="st2" d="M29.6,58.2c-0.6,0-1.1-0.5-1.1-1.1V30.4c0-0.6,0.5-1.1,1.1-1.1h16c0.6,0,1.1,0.5,1.1,1.1v1.1
			c0,0.6-0.5,1.1-1.1,1.1H32.4v9.3h11.3c0.6,0,1.1,0.5,1.1,1.1v1.1c0,0.6-0.5,1.1-1.1,1.1H32.4v11.8c0,0.6-0.5,1.1-1.1,1.1H29.6z"/>
	</g>
</g>
<path class="st1" d="M5.9,164c2.3,0,3.9-1,3.9-3.5c0-1.8-0.9-2.8-2.1-3.1c1.2-0.5,1.5-1.2,1.5-2.5c0-1.9-1-3.3-3.6-3.3h-3
	c-0.3,0-0.5,0.2-0.5,0.5v11.5c0,0.3,0.2,0.5,0.5,0.5L5.9,164L5.9,164z M3.7,158.3h2.1c1.7,0,2.3,0.7,2.3,2.2s-0.6,2.2-2.3,2.2h-2
	v-4.4H3.7z M3.7,153h2c1.5,0,1.9,0.7,1.9,2c0,1.3-0.3,1.9-1.8,1.9H3.7V153z M18.1,163.5c0.2-0.1,0.3-0.4,0.1-0.6l-0.3-0.4
	c-0.1-0.2-0.5-0.3-0.7-0.1c-0.5,0.3-1,0.6-1.7,0.6c-1.5,0-2-0.6-2.1-3.1h5c0.2,0,0.3-0.1,0.3-0.3v-0.3c0-3.3-1.2-4.5-3.4-4.5
	c-2.1,0-3.5,1.3-3.5,4.7s1.3,4.8,3.7,4.8C16.6,164.2,17.4,164,18.1,163.5z M17.1,158.7h-3.6c0.1-2.2,0.8-2.7,1.8-2.7
	C16.6,156,17.1,156.6,17.1,158.7z M22.4,164c0.3,0,0.5-0.2,0.5-0.5v-6.2c0.7-0.6,1.2-0.9,2.1-0.9c0.1,0,0.2,0,0.3,0
	c0.1,0,0.3-0.1,0.3-0.2l0.1-1.3c0-0.1-0.1-0.1-0.1-0.2c-0.1,0-0.1,0-0.2,0c-1,0-1.9,0.6-2.5,1.4l-0.2-0.8c-0.1-0.3-0.3-0.5-0.6-0.5
	h-0.3c-0.3,0-0.5,0.2-0.5,0.5v8.1c0,0.3,0.2,0.5,0.5,0.5L22.4,164L22.4,164z M28.8,164c0.3,0,0.5-0.2,0.5-0.5v-6.3
	c0.6-0.6,1.5-1.1,2.2-1.1c0.8,0,1.1,0.3,1.1,1.3v6.1c0,0.3,0.2,0.5,0.5,0.5h0.6c0.3,0,0.5-0.2,0.5-0.5v-6.6c0-1.5-0.9-2.2-2.2-2.2
	c-1.1,0-2,0.6-2.8,1.4l-0.1-0.7c-0.1-0.3-0.3-0.5-0.6-0.5h-0.3c-0.3,0-0.5,0.2-0.5,0.5v8.1c0,0.3,0.2,0.5,0.5,0.5H28.8z M48.1,162.8
	l0.2,0.7c0.1,0.3,0.3,0.4,0.6,0.4h0.3c0.3,0,0.5-0.2,0.5-0.5v-11.5c0-0.3-0.2-0.5-0.5-0.5h-0.7c-0.3,0-0.5,0.2-0.5,0.5v9.6
	c-0.5,0.5-1.4,1.2-2.7,1.2c-1.6,0-1.9-0.8-1.9-2.6V152c0-0.3-0.2-0.5-0.5-0.5h-0.7c-0.3,0-0.5,0.2-0.5,0.5v8.4
	c0,2.9,1.7,3.8,3.4,3.8C46.4,164.2,47.4,163.6,48.1,162.8z M54.1,164c0.3,0,0.5-0.2,0.5-0.5v-6.3c0.6-0.6,1.5-1.1,2.2-1.1
	c0.8,0,1.1,0.3,1.1,1.3v6.1c0,0.3,0.2,0.5,0.5,0.5H59c0.3,0,0.5-0.2,0.5-0.5v-6.6c0-1.5-0.9-2.2-2.2-2.2c-1.1,0-2,0.6-2.8,1.4
	l-0.1-0.7c-0.1-0.3-0.3-0.5-0.6-0.5h-0.3c-0.3,0-0.5,0.2-0.5,0.5v8.1c0,0.3,0.2,0.5,0.5,0.5H54.1z M64.1,164c0.3,0,0.5-0.2,0.5-0.5
	v-8.1c0-0.3-0.2-0.5-0.5-0.5h-1.9c-0.3,0-0.5,0.2-0.5,0.5v0.1c0,0.3,0.2,0.5,0.5,0.5l0.9,0.1v7.3c0,0.3,0.2,0.5,0.5,0.5L64.1,164
	L64.1,164z M64.8,152.2c0-0.6-0.5-1.1-1.1-1.1s-1.1,0.5-1.1,1.1s0.5,1.1,1.1,1.1C64.4,153.3,64.8,152.8,64.8,152.2z M70.7,164
	c0.3,0,0.5-0.2,0.6-0.4l2.7-8.1c0.1-0.2-0.1-0.5-0.3-0.5H73c-0.3,0-0.5,0.2-0.6,0.5l-1.4,4.7c-0.2,0.7-0.5,1.8-0.6,2.4l0,0
	c-0.1-0.6-0.4-1.7-0.6-2.3l-1.4-4.7c-0.1-0.3-0.3-0.5-0.6-0.5H67c-0.2,0-0.4,0.2-0.3,0.5l2.7,8.1c0.1,0.3,0.3,0.4,0.6,0.4L70.7,164
	L70.7,164z M82,163.5c0.2-0.1,0.3-0.4,0.1-0.6l-0.3-0.4c-0.1-0.2-0.4-0.3-0.7-0.1c-0.5,0.3-1,0.6-1.7,0.6c-1.5,0-2-0.6-2.1-3.1h5
	c0.2,0,0.3-0.1,0.3-0.3v-0.3c0-3.3-1.2-4.5-3.4-4.5c-2.1,0-3.5,1.3-3.5,4.7s1.3,4.8,3.7,4.8C80.5,164.2,81.3,164,82,163.5z
	 M81,158.7h-3.6c0.1-2.2,0.8-2.7,1.8-2.7C80.5,156,81,156.6,81,158.7z M86.3,164c0.3,0,0.5-0.2,0.5-0.5v-6.2
	c0.7-0.6,1.2-0.9,2.1-0.9c0.1,0,0.2,0,0.3,0c0.1,0,0.3-0.1,0.3-0.2l0-1.2c0-0.1-0.1-0.1-0.1-0.2c-0.1,0-0.1,0-0.2,0
	c-1,0-1.9,0.6-2.5,1.4l-0.2-0.8c-0.1-0.3-0.3-0.5-0.6-0.5h-0.3c-0.3,0-0.5,0.2-0.5,0.5v8.1c0,0.3,0.2,0.5,0.5,0.5H86.3z M96.9,161.5
	c0-2-1.3-2.6-2.6-3c-1.2-0.3-1.6-0.6-1.6-1.4c0-0.8,0.5-1.1,1.4-1.1c0.5,0,1,0.1,1.5,0.3c0.3,0.1,0.5,0,0.6-0.3l0.2-0.4
	c0.1-0.2,0-0.5-0.2-0.6c-0.6-0.2-1.2-0.4-2.1-0.4c-2,0-2.8,1.2-2.8,2.5c0,1.8,1,2.4,2.3,2.8c1.4,0.4,1.9,0.6,1.9,1.6
	c0,0.8-0.4,1.3-1.6,1.3c-0.7,0-1.4-0.2-2-0.6c-0.2-0.1-0.5-0.1-0.6,0.2l-0.2,0.3c-0.1,0.2-0.1,0.5,0.2,0.6c0.7,0.4,1.6,0.7,2.6,0.7
	C95.8,164.2,96.9,163.4,96.9,161.5z M101,164c0.3,0,0.5-0.2,0.5-0.5v-8.1c0-0.3-0.2-0.5-0.5-0.5h-1.9c-0.3,0-0.5,0.2-0.5,0.5v0.1
	c0,0.3,0.2,0.5,0.5,0.5l0.9,0.1v7.3c0,0.3,0.2,0.5,0.5,0.5L101,164L101,164z M101.8,152.2c0-0.6-0.5-1.1-1.1-1.1s-1.1,0.5-1.1,1.1
	s0.4,1.1,1.1,1.1C101.3,153.3,101.8,152.8,101.8,152.2z M104.9,156.2v6.1c0,1.4,0.9,1.9,2.2,1.9c0.4,0,0.7-0.1,1-0.2
	c0.3-0.1,0.4-0.3,0.3-0.6l-0.1-0.3c-0.1-0.2-0.3-0.4-0.6-0.3c-0.2,0.1-0.3,0.1-0.6,0.1c-0.5,0-0.7-0.3-0.7-0.8v-5.9h1.4
	c0.3,0,0.5-0.2,0.5-0.5v-0.3c0-0.3-0.2-0.5-0.5-0.5h-1.4v-2.2c0-0.2-0.2-0.4-0.4-0.4l-0.6,0.1c-0.3,0.1-0.4,0.3-0.4,0.6v1.9h-0.6
	c-0.3,0-0.5,0.2-0.5,0.5v0.3c0,0.3,0.2,0.5,0.5,0.5L104.9,156.2L104.9,156.2z M114.2,164.3l2.8-8.9c0.1-0.2-0.1-0.5-0.3-0.5H116
	c-0.3,0-0.5,0.2-0.6,0.5l-1.5,4.9c-0.3,0.9-0.4,1.8-0.6,2.5l0,0c-0.1-0.7-0.3-1.7-0.5-2.5l-1.4-4.9c-0.1-0.3-0.3-0.5-0.6-0.5H110
	c-0.2,0-0.4,0.2-0.3,0.5l2.6,8.2c0.1,0.2,0.3,0.3,0.5,0.3l0,0c-0.5,1.5-0.9,2-2,2.3c-0.3,0.1-0.4,0.3-0.3,0.6l0.1,0.3
	c0.1,0.3,0.3,0.4,0.6,0.3C112.7,167.3,113.4,166.7,114.2,164.3z M8.8,179.5c0-3.4-1.5-4.7-3.7-4.7s-3.6,1.3-3.6,4.7s1.5,4.8,3.7,4.8
	S8.8,182.9,8.8,179.5z M3.1,179.5c0-2.8,0.6-3.5,2-3.5s2,0.7,2,3.5s-0.6,3.5-2,3.5S3.1,182.3,3.1,179.5z M11.4,176.2v7.3
	c0,0.3,0.2,0.5,0.5,0.5h0.6c0.3,0,0.5-0.2,0.5-0.5v-7.3h1.2c0.3,0,0.5-0.2,0.5-0.5v-0.3c0-0.3-0.2-0.5-0.5-0.5H13v-1.5
	c0-0.9,0.3-1.3,1.1-1.3c0.2,0,0.5,0,0.7,0.1c0.3,0.1,0.5-0.1,0.6-0.3l0.1-0.3c0.1-0.2,0-0.5-0.2-0.6c-0.4-0.2-0.9-0.3-1.5-0.3
	c-1.3,0-2.4,0.6-2.4,2.7v1.4h-0.5c-0.3,0-0.5,0.2-0.5,0.5v0.3c0,0.3,0.2,0.5,0.5,0.5h0.5V176.2z M21.4,184c0.3,0,0.5-0.2,0.6-0.4
	l0.9-3.2h3.8l0.9,3.2c0.1,0.3,0.3,0.4,0.6,0.4h0.9c0.2,0,0.4-0.2,0.3-0.4L26,172c-0.1-0.3-0.3-0.4-0.6-0.4h-0.9
	c-0.3,0-0.5,0.2-0.6,0.4l-3.5,11.5c-0.1,0.2,0.1,0.4,0.3,0.4h0.7V184z M24.8,173.3L24.8,173.3c0.2,1,0.4,1.7,0.9,3.6l0.6,2.1h-3
	l0.6-2.1C24.5,175,24.7,174.3,24.8,173.3z M32.7,187.6c0.3,0,0.5-0.2,0.5-0.5v-3.9c0.6,0.6,1.4,1,2.4,1c2.1,0,3.1-1.4,3.1-4.8
	c0-3.7-1.4-4.7-3.1-4.7c-1,0-1.8,0.5-2.5,1.3l-0.1-0.6c-0.1-0.3-0.3-0.5-0.6-0.5h-0.3c-0.3,0-0.5,0.2-0.5,0.5v11.7
	c0,0.3,0.2,0.5,0.5,0.5H32.7z M33.2,182v-4.9c0.6-0.6,1.3-1.1,2.1-1.1c1.2,0,1.7,0.6,1.7,3.5s-0.6,3.4-1.8,3.4
	C34.5,182.9,33.7,182.5,33.2,182z M42.5,187.6c0.3,0,0.5-0.2,0.5-0.5v-3.9c0.6,0.6,1.4,1,2.4,1c2.1,0,3.1-1.4,3.1-4.8
	c0-3.7-1.4-4.7-3.1-4.7c-1,0-1.8,0.5-2.5,1.3l-0.1-0.6c-0.1-0.3-0.3-0.5-0.6-0.5h-0.3c-0.3,0-0.5,0.2-0.5,0.5v11.7
	c0,0.3,0.2,0.5,0.5,0.5H42.5z M42.9,182v-4.9c0.6-0.6,1.3-1.1,2.1-1.1c1.2,0,1.7,0.6,1.7,3.5s-0.6,3.4-1.8,3.4
	C44.2,182.9,43.5,182.5,42.9,182z M53.4,184.1c0.3-0.1,0.4-0.3,0.4-0.6l-0.1-0.5c0-0.1-0.1-0.1-0.2-0.1c-0.1,0-0.1,0-0.2,0
	c-0.4,0-0.6-0.2-0.6-0.6v-10.8c0-0.3-0.2-0.5-0.5-0.5h-0.6c-0.3,0-0.5,0.2-0.5,0.5V182c0,1.6,0.5,2.2,1.6,2.2
	C53,184.2,53.2,184.1,53.4,184.1z M57.7,184c0.3,0,0.5-0.2,0.5-0.5v-8.1c0-0.3-0.2-0.5-0.5-0.5h-1.9c-0.3,0-0.5,0.2-0.5,0.5v0.1
	c0,0.3,0.2,0.5,0.5,0.5l0.9,0.1v7.3c0,0.3,0.2,0.5,0.5,0.5L57.7,184L57.7,184z M58.5,172.2c0-0.6-0.5-1.1-1.1-1.1s-1.1,0.5-1.1,1.1
	s0.5,1.1,1.1,1.1S58.5,172.8,58.5,172.2z M67.1,183.5c0.2-0.1,0.3-0.4,0.1-0.6l-0.3-0.4c-0.1-0.2-0.5-0.3-0.7-0.1
	c-0.5,0.3-1,0.6-1.7,0.6c-1.5,0-2-0.6-2.1-3.1h4.9c0.2,0,0.3-0.1,0.3-0.3v-0.3c0-3.3-1.2-4.5-3.4-4.5c-2.1,0-3.5,1.3-3.5,4.7
	s1.3,4.8,3.7,4.8C65.6,184.2,66.4,184,67.1,183.5z M66.1,178.7h-3.6c0.1-2.2,0.8-2.7,1.8-2.7C65.6,176,66.1,176.6,66.1,178.7z
	 M75.4,183.1l0.1,0.5c0.1,0.3,0.3,0.4,0.6,0.4h0.3c0.3,0,0.5-0.2,0.5-0.5v-12.1c0-0.3-0.2-0.5-0.5-0.5h-0.6c-0.3,0-0.5,0.2-0.5,0.5
	v4.4c-0.6-0.6-1.4-1.1-2.4-1.1c-2.1,0-3.1,1.4-3.1,4.8c0,3.7,1.3,4.7,3.1,4.7C73.8,184.2,74.7,183.8,75.4,183.1z M71.4,179.4
	c0-2.9,0.6-3.4,1.8-3.4c0.8,0,1.5,0.5,2,1v4.9c-0.6,0.6-1.3,1-2.1,1C71.9,182.9,71.4,182.3,71.4,179.4z M91.2,180.7
	c0-2.5-1.5-3.2-3.4-4c-1.5-0.6-2-0.9-2-2.2c0-1.2,0.8-1.7,1.9-1.7c0.7,0,1.3,0.2,1.8,0.5c0.2,0.1,0.5,0,0.6-0.2l0.2-0.5
	c0.1-0.2,0-0.5-0.2-0.6c-0.7-0.4-1.5-0.6-2.6-0.6c-2.2,0-3.5,1.1-3.5,3.2c0,2.1,0.9,2.9,3,3.7c1.5,0.6,2.4,1,2.4,2.5
	c0,1.3-0.6,2-2.3,2c-1,0-1.7-0.2-2.5-0.8c-0.2-0.1-0.5-0.1-0.6,0.1l-0.2,0.4c-0.1,0.2-0.1,0.5,0.1,0.7c0.9,0.6,2.1,1,3.3,1
	C90.3,184.2,91.2,182.5,91.2,180.7z M99.2,183.4c0.2-0.2,0.2-0.5,0-0.6l-0.3-0.3c-0.2-0.2-0.5-0.2-0.7-0.1c-0.4,0.3-0.8,0.5-1.3,0.5
	c-1.4,0-2-0.7-2-3.4c0-2.8,0.5-3.4,1.9-3.4c0.6,0,1,0.2,1.4,0.5c0.2,0.2,0.5,0.1,0.7-0.1l0.3-0.4c0.2-0.2,0.1-0.5-0.1-0.6
	c-0.6-0.5-1.3-0.7-2.2-0.7c-2.2,0-3.6,1.3-3.6,4.7c0,3.2,1.3,4.8,3.6,4.8C97.9,184.2,98.6,184,99.2,183.4z M103.5,184
	c0.3,0,0.5-0.2,0.5-0.5v-8.1c0-0.3-0.2-0.5-0.5-0.5h-2c-0.3,0-0.5,0.2-0.5,0.5v0.1c0,0.3,0.2,0.5,0.5,0.5l0.9,0.1v7.3
	c0,0.3,0.2,0.5,0.5,0.5L103.5,184L103.5,184z M104.2,172.2c0-0.6-0.5-1.1-1.1-1.1s-1.1,0.5-1.1,1.1s0.4,1.1,1.1,1.1
	C103.8,173.3,104.2,172.8,104.2,172.2z M112.9,183.5c0.2-0.1,0.3-0.4,0.1-0.6l-0.3-0.4c-0.1-0.2-0.5-0.3-0.7-0.1
	c-0.5,0.3-1,0.6-1.7,0.6c-1.5,0-2-0.6-2.1-3.1h5c0.2,0,0.3-0.1,0.3-0.3v-0.3c0-3.3-1.2-4.5-3.4-4.5c-2.1,0-3.5,1.3-3.5,4.7
	s1.3,4.8,3.7,4.8C111.4,184.2,112.1,184,112.9,183.5z M111.8,178.7h-3.6c0.1-2.2,0.8-2.7,1.8-2.7C111.3,176,111.8,176.6,111.8,178.7
	z M117.1,184c0.3,0,0.5-0.2,0.5-0.5v-6.3c0.6-0.6,1.5-1.1,2.2-1.1c0.8,0,1.1,0.3,1.1,1.3v6.1c0,0.3,0.2,0.5,0.5,0.5h0.6
	c0.3,0,0.5-0.2,0.5-0.5v-6.6c0-1.5-0.9-2.2-2.2-2.2c-1.1,0-2,0.6-2.8,1.4l-0.1-0.7c-0.1-0.3-0.3-0.5-0.6-0.5h-0.3
	c-0.3,0-0.5,0.2-0.5,0.5v8.1c0,0.3,0.2,0.5,0.5,0.5H117.1z M130.8,183.4c0.2-0.2,0.2-0.5,0-0.6l-0.3-0.3c-0.2-0.2-0.5-0.2-0.7-0.1
	c-0.4,0.3-0.8,0.5-1.3,0.5c-1.4,0-2-0.7-2-3.4c0-2.8,0.5-3.4,1.9-3.4c0.6,0,1,0.2,1.4,0.5c0.2,0.2,0.5,0.1,0.7-0.1l0.3-0.4
	c0.2-0.2,0.1-0.5-0.1-0.6c-0.6-0.5-1.3-0.7-2.2-0.7c-2.2,0-3.6,1.3-3.6,4.7c0,3.2,1.3,4.8,3.6,4.8
	C129.5,184.2,130.3,184,130.8,183.4z M139,183.5c0.2-0.1,0.3-0.4,0.1-0.6l-0.3-0.4c-0.1-0.2-0.4-0.3-0.7-0.1c-0.5,0.3-1,0.6-1.7,0.6
	c-1.5,0-2-0.6-2.1-3.1h4.9c0.2,0,0.3-0.1,0.3-0.3v-0.3c0-3.3-1.2-4.5-3.4-4.5c-2.1,0-3.5,1.3-3.5,4.7s1.3,4.8,3.7,4.8
	C137.5,184.2,138.3,184,139,183.5z M137.9,178.7h-3.6c0.1-2.2,0.8-2.7,1.8-2.7C137.5,176,137.9,176.6,137.9,178.7z M147.4,181.5
	c0-2-1.3-2.6-2.6-3c-1.2-0.3-1.6-0.6-1.6-1.4c0-0.8,0.4-1.1,1.4-1.1c0.5,0,1,0.1,1.5,0.3c0.3,0.1,0.5,0,0.6-0.3l0.2-0.4
	c0.1-0.2,0-0.5-0.2-0.6c-0.6-0.2-1.2-0.4-2.1-0.4c-2,0-2.8,1.2-2.8,2.5c0,1.8,1,2.4,2.3,2.8c1.4,0.4,1.9,0.6,1.9,1.6
	c0,0.8-0.4,1.3-1.6,1.3c-0.7,0-1.4-0.2-2-0.6c-0.2-0.1-0.5-0.1-0.6,0.2l-0.2,0.3c-0.1,0.2-0.1,0.5,0.2,0.6c0.7,0.4,1.6,0.7,2.6,0.7
	C146.4,184.2,147.4,183.4,147.4,181.5z"/>
</svg>
